<svg xmlns:xlink="http://www.w3.org/1999/xlink" width="471" height="455" viewBox="0 0 471 455" fill="none" xmlns="http://www.w3.org/2000/svg" class="styles_illustration__rytlx"><path d="M464.333 323.082H344.94C341.481 323.082 338.686 320.28 338.686 316.831V173.783C338.686 170.325 341.49 167.532 344.94 167.532H464.333C467.793 167.532 470.588 170.335 470.588 173.783V316.822C470.588 320.28 467.783 323.082 464.333 323.082Z" fill="#27272E"></path><path d="M367.675 183.513H356.968V185.708H367.675V183.513Z" fill="#04D361"></path><path d="M365.603 190.091H362.5V192.286H365.603V190.091Z" fill="#04D361"></path><path d="M377.342 190.091H367.328V192.286H377.342V190.091Z" fill="#121214"></path><path d="M393.919 190.091H379.414V192.286H393.919V190.091Z" fill="#121214"></path><path d="M360.419 196.668H357.315V198.864H360.419V196.668Z" fill="#04D361"></path><path d="M372.166 196.668H362.152V198.864H372.166V196.668Z" fill="#121214"></path><path d="M401.523 196.668H391.51V198.864H401.523V196.668Z" fill="#04D361"></path><path d="M388.744 196.668H374.239V198.864H388.744V196.668Z" fill="#121214"></path><path d="M364.571 209.815H362.152V212.011H364.571V209.815Z" fill="#04D361"></path><path d="M376.311 209.815H366.297V212.011H376.311V209.815Z" fill="#121214"></path><path d="M396.684 209.815H394.612V212.011H396.684V209.815Z" fill="#04D361"></path><path d="M392.888 209.815H378.383V212.011H392.888V209.815Z" fill="#121214"></path><path d="M412.915 209.815H398.41V212.011H412.915V209.815Z" fill="#121214"></path><path d="M366.298 237.862H363.879V240.058H366.298V237.862Z" fill="#04D361"></path><path d="M378.036 237.862H368.022V240.058H378.036V237.862Z" fill="#121214"></path><path d="M398.409 237.862H396.337V240.058H398.409V237.862Z" fill="#04D361"></path><path d="M394.613 237.862H380.108V240.058H394.613V237.862Z" fill="#121214"></path><path d="M414.64 237.862H400.135V240.058H414.64V237.862Z" fill="#121214"></path><path d="M366.298 251.021H363.879V253.216H366.298V251.021Z" fill="#04D361"></path><path d="M378.036 251.021H368.022V253.216H378.036V251.021Z" fill="#121214"></path><path d="M398.409 251.021H396.337V253.216H398.409V251.021Z" fill="#04D361"></path><path d="M394.613 251.021H380.108V253.216H394.613V251.021Z" fill="#121214"></path><path d="M414.64 251.021H400.135V253.216H414.64V251.021Z" fill="#121214"></path><path d="M370.44 230.851H360.427V233.046H370.44V230.851Z" fill="#04D361"></path><path d="M390.816 230.851H388.744V233.046H390.816V230.851Z" fill="#04D361"></path><path d="M387.018 230.851H372.514V233.046H387.018V230.851Z" fill="#121214"></path><path d="M407.046 230.851H392.541V233.046H407.046V230.851Z" fill="#121214"></path><path d="M440.884 230.851H408.771V233.046H440.884V230.851Z" fill="#121214"></path><path d="M380.802 216.394H370.788V218.589H380.802V216.394Z" fill="#04D361"></path><path d="M401.176 216.394H399.104V218.589H401.176V216.394Z" fill="#04D361"></path><path d="M397.38 216.394H382.875V218.589H397.38V216.394Z" fill="#121214"></path><path d="M417.406 216.394H402.901V218.589H417.406V216.394Z" fill="#121214"></path><path d="M368.024 244.441H358.011V246.637H368.024V244.441Z" fill="#121214"></path><path d="M388.396 244.441H386.324V246.637H388.396V244.441Z" fill="#04D361"></path><path d="M408.424 244.441H406.352V246.637H408.424V244.441Z" fill="#04D361"></path><path d="M384.6 244.441H370.095V246.637H384.6V244.441Z" fill="#121214"></path><path d="M404.627 244.441H390.122V246.637H404.627V244.441Z" fill="#121214"></path><path d="M424.654 244.441H410.149V246.637H424.654V244.441Z" fill="#121214"></path><path d="M413.608 190.091H398.756V192.286H413.608V190.091Z" fill="#121214"></path><path d="M422.928 190.091H415.681V192.286H422.928V190.091Z" fill="#04D361"></path><path d="M426.726 190.091H425.001V192.286H426.726V190.091Z" fill="#04D361"></path><path d="M397.378 190.091H395.306V192.286H397.378V190.091Z" fill="#04D361"></path><path d="M367.676 202.804H357.662V204.999H367.676V202.804Z" fill="#04D361"></path><path d="M384.253 202.804H369.748V204.999H384.253V202.804Z" fill="#121214"></path><path d="M403.942 202.804H389.09V204.999H403.942V202.804Z" fill="#121214"></path><path d="M437.435 202.804H406.006V204.999H437.435V202.804Z" fill="#121214"></path><path d="M387.703 202.804H385.631V204.999H387.703V202.804Z" fill="#04D361"></path><path d="M368.707 223.839H358.693V226.034H368.707V223.839Z" fill="#04D361"></path><path d="M385.293 223.839H370.788V226.034H385.293V223.839Z" fill="#121214"></path><path d="M404.974 223.839H390.122V226.034H404.974V223.839Z" fill="#121214"></path><path d="M438.475 223.839H407.046V226.034H438.475V223.839Z" fill="#121214"></path><path d="M388.744 223.839H386.672V226.034H388.744V223.839Z" fill="#04D361"></path><path d="M384.252 183.512H369.4V185.707H384.252V183.512Z" fill="#121214"></path><path d="M403.942 183.512H389.09V185.707H403.942V183.512Z" fill="#121214"></path><path d="M433.637 183.512H405.668V185.707H433.637V183.512Z" fill="#121214"></path><path d="M387.703 183.512H385.978V185.707H387.703V183.512Z" fill="#04D361"></path><path d="M364.57 297.896H362.151V300.092H364.57V297.896Z" fill="#04D361"></path><path d="M376.31 297.896H366.296V300.092H376.31V297.896Z" fill="#121214"></path><path d="M396.683 297.896H394.611V300.092H396.683V297.896Z" fill="#04D361"></path><path d="M392.887 297.896H378.382V300.092H392.887V297.896Z" fill="#121214"></path><path d="M412.914 297.896H398.409V300.092H412.914V297.896Z" fill="#121214"></path><path d="M366.297 269.84H363.878V272.035H366.297V269.84Z" fill="#04D361"></path><path d="M378.035 269.84H368.021V272.035H378.035V269.84Z" fill="#121214"></path><path d="M398.41 269.84H396.338V272.035H398.41V269.84Z" fill="#04D361"></path><path d="M394.612 269.84H380.107V272.035H394.612V269.84Z" fill="#121214"></path><path d="M414.639 269.84H400.134V272.035H414.639V269.84Z" fill="#121214"></path><path d="M366.297 256.692H363.878V258.888H366.297V256.692Z" fill="#04D361"></path><path d="M378.035 256.692H368.021V258.888H378.035V256.692Z" fill="#121214"></path><path d="M398.41 256.692H396.338V258.888H398.41V256.692Z" fill="#04D361"></path><path d="M394.612 256.692H380.107V258.888H394.612V256.692Z" fill="#121214"></path><path d="M414.639 256.692H400.134V258.888H414.639V256.692Z" fill="#121214"></path><path d="M370.44 276.852H360.427V279.047H370.44V276.852Z" fill="#04D361"></path><path d="M390.814 276.852H388.742V279.047H390.814V276.852Z" fill="#04D361"></path><path d="M387.017 276.852H372.513V279.047H387.017V276.852Z" fill="#121214"></path><path d="M407.045 276.852H392.54V279.047H407.045V276.852Z" fill="#121214"></path><path d="M440.882 276.852H408.77V279.047H440.882V276.852Z" fill="#121214"></path><path d="M380.803 291.318H370.789V293.514H380.803V291.318Z" fill="#04D361"></path><path d="M401.176 291.318H399.104V293.514H401.176V291.318Z" fill="#04D361"></path><path d="M397.379 291.318H382.874V293.514H397.379V291.318Z" fill="#121214"></path><path d="M417.406 291.318H402.901V293.514H417.406V291.318Z" fill="#121214"></path><path d="M368.023 263.261H358.01V265.456H368.023V263.261Z" fill="#121214"></path><path d="M388.396 263.261H386.324V265.456H388.396V263.261Z" fill="#04D361"></path><path d="M408.424 263.261H406.352V265.456H408.424V263.261Z" fill="#04D361"></path><path d="M384.599 263.261H370.094V265.456H384.599V263.261Z" fill="#121214"></path><path d="M404.626 263.261H390.121V265.456H404.626V263.261Z" fill="#121214"></path><path d="M424.653 263.261H410.148V265.456H424.653V263.261Z" fill="#121214"></path><path d="M367.676 304.907H357.662V307.103H367.676V304.907Z" fill="#04D361"></path><path d="M384.252 304.907H369.747V307.103H384.252V304.907Z" fill="#121214"></path><path d="M403.942 304.907H389.09V307.103H403.942V304.907Z" fill="#121214"></path><path d="M437.433 304.907H406.004V307.103H437.433V304.907Z" fill="#121214"></path><path d="M387.702 304.907H385.63V307.103H387.702V304.907Z" fill="#04D361"></path><path d="M368.705 283.863H358.691V286.059H368.705V283.863Z" fill="#04D361"></path><path d="M385.294 283.863H370.789V286.059H385.294V283.863Z" fill="#121214"></path><path d="M404.973 283.863H390.121V286.059H404.973V283.863Z" fill="#121214"></path><path d="M438.474 283.863H407.045V286.059H438.474V283.863Z" fill="#121214"></path><path d="M388.743 283.863H386.671V286.059H388.743V283.863Z" fill="#04D361"></path><path d="M126.115 170.849H6.73243C3.27248 170.849 0.477539 168.046 0.477539 164.598V84.2509C0.477539 80.7932 3.28212 78 6.73243 78H126.115C129.575 78 132.37 80.8028 132.37 84.2509V164.598C132.37 168.046 129.565 170.849 126.115 170.849Z" fill="#27272E"></path><path d="M28.0132 90.6855H17.3057V92.8812H28.0132V90.6855Z" fill="#04D361"></path><path d="M25.9403 97.2529H22.8369V99.4486H25.9403V97.2529Z" fill="#04D361"></path><path d="M37.6796 97.2529H27.666V99.4486H37.6796V97.2529Z" fill="#121214"></path><path d="M54.2568 97.2529H39.752V99.4486H54.2568V97.2529Z" fill="#121214"></path><path d="M20.7567 103.832H17.6533V106.028H20.7567V103.832Z" fill="#04D361"></path><path d="M32.5038 103.832H22.4902V106.028H32.5038V103.832Z" fill="#121214"></path><path d="M61.8603 103.832H51.8467V106.028H61.8603V103.832Z" fill="#04D361"></path><path d="M49.08 103.832H34.5752V106.028H49.08V103.832Z" fill="#121214"></path><path d="M24.9093 116.979H22.4902V119.174H24.9093V116.979Z" fill="#04D361"></path><path d="M36.6484 116.979H26.6348V119.174H36.6484V116.979Z" fill="#121214"></path><path d="M57.0213 116.979H54.9492V119.174H57.0213V116.979Z" fill="#04D361"></path><path d="M53.2245 116.979H38.7197V119.174H53.2245V116.979Z" fill="#121214"></path><path d="M73.2519 116.979H58.7471V119.174H73.2519V116.979Z" fill="#121214"></path><path d="M26.6339 145.026H24.2148V147.222H26.6339V145.026Z" fill="#04D361"></path><path d="M38.373 145.026H28.3594V147.222H38.373V145.026Z" fill="#121214"></path><path d="M58.7479 145.026H56.6758V147.222H58.7479V145.026Z" fill="#04D361"></path><path d="M54.9501 145.026H40.4453V147.222H54.9501V145.026Z" fill="#121214"></path><path d="M74.9765 145.026H60.4717V147.222H74.9765V145.026Z" fill="#121214"></path><path d="M26.6339 158.183H24.2148V160.378H26.6339V158.183Z" fill="#04D361"></path><path d="M38.373 158.183H28.3594V160.378H38.373V158.183Z" fill="#121214"></path><path d="M58.7479 158.183H56.6758V160.378H58.7479V158.183Z" fill="#04D361"></path><path d="M54.9501 158.183H40.4453V160.378H54.9501V158.183Z" fill="#121214"></path><path d="M74.9765 158.183H60.4717V160.378H74.9765V158.183Z" fill="#121214"></path><path d="M30.7792 138.015H20.7656V140.21H30.7792V138.015Z" fill="#04D361"></path><path d="M51.1522 138.015H49.0801V140.21H51.1522V138.015Z" fill="#04D361"></path><path d="M47.3554 138.015H32.8506V140.21H47.3554V138.015Z" fill="#121214"></path><path d="M67.3827 138.015H52.8779V140.21H67.3827V138.015Z" fill="#121214"></path><path d="M101.22 138.015H69.1074V140.21H101.22V138.015Z" fill="#121214"></path><path d="M41.1396 123.557H31.126V125.752H41.1396V123.557Z" fill="#04D361"></path><path d="M61.5135 123.557H59.4414V125.752H61.5135V123.557Z" fill="#04D361"></path><path d="M57.7157 123.557H43.2109V125.752H57.7157V123.557Z" fill="#121214"></path><path d="M77.7431 123.557H63.2383V125.752H77.7431V123.557Z" fill="#121214"></path><path d="M28.3603 151.604H18.3467V153.8H28.3603V151.604Z" fill="#121214"></path><path d="M48.7342 151.604H46.6621V153.8H48.7342V151.604Z" fill="#04D361"></path><path d="M68.7606 151.604H66.6885V153.8H68.7606V151.604Z" fill="#04D361"></path><path d="M44.9374 151.604H30.4326V153.8H44.9374V151.604Z" fill="#121214"></path><path d="M64.9638 151.604H50.459V153.8H64.9638V151.604Z" fill="#121214"></path><path d="M85.0009 151.604H70.4961V153.8H85.0009V151.604Z" fill="#121214"></path><path d="M73.9455 97.2529H59.0938V99.4486H73.9455V97.2529Z" fill="#121214"></path><path d="M83.2661 97.2529H76.0186V99.4486H83.2661V97.2529Z" fill="#04D361"></path><path d="M87.063 97.2529H85.3379V99.4486H87.063V97.2529Z" fill="#04D361"></path><path d="M57.7166 97.2529H55.6445V99.4486H57.7166V97.2529Z" fill="#04D361"></path><path d="M28.0146 109.967H18.001V112.162H28.0146V109.967Z" fill="#04D361"></path><path d="M44.5888 109.967H30.084V112.162H44.5888V109.967Z" fill="#121214"></path><path d="M64.2795 109.967H49.4277V112.162H64.2795V109.967Z" fill="#121214"></path><path d="M97.7802 109.967H66.3516V112.162H97.7802V109.967Z" fill="#121214"></path><path d="M48.0399 109.967H45.9678V112.162H48.0399V109.967Z" fill="#04D361"></path><path d="M29.0546 131.003H19.041V133.199H29.0546V131.003Z" fill="#04D361"></path><path d="M45.6308 131.003H31.126V133.199H45.6308V131.003Z" fill="#121214"></path><path d="M65.3107 131.003H50.459V133.199H65.3107V131.003Z" fill="#121214"></path><path d="M98.8115 131.003H67.3828V133.199H98.8115V131.003Z" fill="#121214"></path><path d="M49.0809 131.003H47.0088V133.199H49.0809V131.003Z" fill="#04D361"></path><path d="M44.5891 90.6846H29.7373V92.8802H44.5891V90.6846Z" fill="#121214"></path><path d="M64.2795 90.6846H49.4277V92.8802H64.2795V90.6846Z" fill="#121214"></path><path d="M93.9736 90.6846H66.0049V92.8802H93.9736V90.6846Z" fill="#121214"></path><path d="M48.0406 90.6846H46.3154V92.8802H48.0406V90.6846Z" fill="#04D361"></path><path d="M345.154 35.0991C344.591 35.453 343.846 35.2813 343.491 34.7156C343.135 34.15 343.303 33.4047 343.866 33.0508C344.429 32.697 345.174 32.8687 345.529 33.4343C345.885 33.9999 345.717 34.7453 345.154 35.0991Z" fill="#FFFFFF"></path><path d="M401.08 25.5557C400.857 26.5316 399.882 27.1414 398.901 26.9178C397.92 26.6941 397.306 25.7216 397.529 24.7456C397.751 23.7697 398.727 23.1598 399.707 23.3835C400.688 23.6072 401.302 24.5797 401.08 25.5557Z" fill="#FFFFFF"></path><path d="M381.017 74.5258C380.72 75.8259 379.421 76.6383 378.114 76.3403C376.808 76.0424 375.99 74.7469 376.286 73.4468C376.583 72.1467 377.882 71.3343 379.188 71.6323C380.495 71.9303 381.313 73.2258 381.017 74.5258Z" fill="#FFFFFF"></path><path d="M358.011 50.5707L354.297 43.9719L350.725 50.6321L344.092 54.3212L350.793 57.8898L354.501 64.488L358.08 57.8219L364.706 54.1387L358.011 50.5707Z" fill="#FFFFFF"></path><path d="M403.429 48.0883L402.101 44.8815L400.103 47.7232L396.885 49.0381L399.745 51.0272L401.071 54.2404L403.069 51.3988L406.289 50.0774L403.429 48.0883Z" fill="#FFFFFF"></path><path d="M81.9166 266.783C80.5831 266.783 79.5021 265.696 79.5021 264.357C79.5021 263.017 80.5831 261.931 81.9166 261.931C83.2501 261.931 84.3311 263.017 84.3311 264.357C84.3311 265.696 83.2501 266.783 81.9166 266.783Z" fill="#FFFFFF"></path><path d="M109.831 252.83C109.166 252.83 108.627 252.288 108.627 251.62C108.627 250.952 109.166 250.41 109.831 250.41C110.496 250.41 111.035 250.952 111.035 251.62C111.035 252.288 110.496 252.83 109.831 252.83Z" fill="#FFFFFF"></path><path d="M119.906 273.888L122.744 271.88L119.529 270.571L117.525 267.719L116.222 270.949L113.391 272.964L116.605 274.273L118.603 277.118L119.906 273.888Z" fill="#FFFFFF"></path><path d="M74.4172 237.081L72.5716 231.677L69.0392 236.151L63.6612 238.005L68.1131 241.555L69.9587 246.96L73.4911 242.486L78.8691 240.631L74.4172 237.081Z" fill="#FFFFFF"></path><path d="M140.608 7.18998C140.608 2.68289 142.982 0.000976562 146.253 0.000976562C149.524 0.000976562 151.916 2.68289 151.916 7.18998C151.916 11.6971 149.524 14.379 146.253 14.379C142.982 14.379 140.608 11.6971 140.608 7.18998ZM150.421 7.18998C150.421 3.40924 148.72 1.34193 146.253 1.34193C143.786 1.34193 142.085 3.42786 142.085 7.18998C142.085 10.9521 143.786 13.038 146.253 13.038C148.72 13.0567 150.421 10.9707 150.421 7.18998Z" fill="#04D361"></path><path d="M154.01 7.18901C154.01 2.68191 156.383 0 159.654 0C162.925 0 165.318 2.68191 165.318 7.18901C165.318 11.6961 162.925 14.378 159.654 14.378C156.383 14.378 154.01 11.6961 154.01 7.18901ZM163.841 7.18901C163.841 3.40826 162.14 1.34096 159.673 1.34096C157.206 1.34096 155.505 3.42688 155.505 7.18901C155.505 10.9511 157.206 13.0371 159.673 13.0371C162.14 13.0557 163.841 10.9698 163.841 7.18901Z" fill="#04D361"></path><path d="M171.298 0.130859V14.2481H169.84V1.41595H166.494V0.130859H171.298Z" fill="#04D361"></path><path d="M174.682 7.18901C174.682 2.68191 177.055 0 180.326 0C183.597 0 185.989 2.68191 185.989 7.18901C185.989 11.6961 183.597 14.378 180.326 14.378C177.055 14.378 174.682 11.6961 174.682 7.18901ZM184.513 7.18901C184.513 3.40826 182.812 1.34096 180.345 1.34096C177.878 1.34096 176.177 3.42688 176.177 7.18901C176.177 10.9511 177.878 13.0371 180.345 13.0371C182.812 13.0557 184.513 10.9698 184.513 7.18901Z" fill="#04D361"></path><path d="M191.989 0.130859V14.2481H190.531V1.41595H187.186V0.130859H191.989Z" fill="#04D361"></path><path d="M126.646 27.2486C126.646 22.7415 129.02 20.0596 132.291 20.0596C135.562 20.0596 137.954 22.7415 137.954 27.2486C137.954 31.7557 135.562 34.4376 132.291 34.4376C129.02 34.4376 126.646 31.7371 126.646 27.2486ZM136.459 27.2486C136.459 23.4678 134.758 21.4005 132.291 21.4005C129.824 21.4005 128.123 23.4865 128.123 27.2486C128.123 31.0293 129.824 33.0966 132.291 33.0966C134.758 33.0966 136.459 31.0107 136.459 27.2486Z" fill="#04D361"></path><path d="M140.048 27.2486C140.048 22.7415 142.422 20.0596 145.692 20.0596C148.963 20.0596 151.356 22.7415 151.356 27.2486C151.356 31.7557 148.963 34.4376 145.692 34.4376C142.422 34.4376 140.048 31.7371 140.048 27.2486ZM149.879 27.2486C149.879 23.4678 148.178 21.4005 145.711 21.4005C143.244 21.4005 141.543 23.4865 141.543 27.2486C141.543 31.0293 143.244 33.0966 145.711 33.0966C148.178 33.0966 149.879 31.0107 149.879 27.2486Z" fill="#04D361"></path><path d="M157.355 20.1904V34.3077H155.897V21.4755H152.552V20.1904H157.355Z" fill="#04D361"></path><path d="M160.738 27.2486C160.738 22.7415 163.112 20.0596 166.383 20.0596C169.654 20.0596 172.046 22.7415 172.046 27.2486C172.046 31.7557 169.654 34.4376 166.383 34.4376C163.112 34.4376 160.738 31.7371 160.738 27.2486ZM170.551 27.2486C170.551 23.4678 168.85 21.4005 166.383 21.4005C163.916 21.4005 162.215 23.4865 162.215 27.2486C162.215 31.0293 163.916 33.0966 166.383 33.0966C168.85 33.0966 170.551 31.0107 170.551 27.2486Z" fill="#04D361"></path><path d="M178.027 20.1904V34.3077H176.569V21.4755H173.224V20.1904H178.027Z" fill="#04D361"></path><path d="M185.335 20.1904V34.3077H183.877V21.4755H180.531V20.1904H185.335Z" fill="#04D361"></path><path d="M188.718 27.2486C188.718 22.7415 191.091 20.0596 194.362 20.0596C197.633 20.0596 200.026 22.7415 200.026 27.2486C200.026 31.7557 197.633 34.4376 194.362 34.4376C191.091 34.4376 188.718 31.7371 188.718 27.2486ZM198.53 27.2486C198.53 23.4678 196.83 21.4005 194.362 21.4005C191.895 21.4005 190.194 23.4865 190.194 27.2486C190.194 31.0293 191.895 33.0966 194.362 33.0966C196.83 33.0966 198.53 31.0107 198.53 27.2486Z" fill="#04D361"></path><path d="M206.007 20.1904V34.3077H204.549V21.4755H201.203V20.1904H206.007Z" fill="#04D361"></path><path d="M140.608 46.6363C140.608 42.1292 142.982 39.4473 146.253 39.4473C149.524 39.4473 151.916 42.1292 151.916 46.6363C151.916 51.1434 149.524 53.8253 146.253 53.8253C142.982 53.8253 140.608 51.1247 140.608 46.6363ZM150.421 46.6363C150.421 42.8555 148.72 40.7882 146.253 40.7882C143.786 40.7882 142.085 42.8742 142.085 46.6363C142.085 50.3984 143.786 52.4843 146.253 52.4843C148.72 52.4843 150.421 50.3984 150.421 46.6363Z" fill="#04D361"></path><path d="M157.898 39.5771V53.6944H156.44V40.8622H153.095V39.5771H157.898Z" fill="#04D361"></path><path d="M165.205 39.5771V53.6944H163.747V40.8622H160.401V39.5771H165.205Z" fill="#04D361"></path><path d="M172.513 39.5771V53.6944H171.056V40.8622H167.71V39.5771H172.513Z" fill="#04D361"></path><path d="M175.915 46.6353C175.915 42.1282 178.289 39.4463 181.56 39.4463C184.83 39.4463 187.223 42.1282 187.223 46.6353C187.223 51.1424 184.83 53.8243 181.56 53.8243C178.289 53.8243 175.915 51.1238 175.915 46.6353ZM185.728 46.6353C185.728 42.8545 184.027 40.7872 181.56 40.7872C179.092 40.7872 177.392 42.8732 177.392 46.6353C177.392 50.3974 179.092 52.4833 181.56 52.4833C184.027 52.4833 185.728 50.3974 185.728 46.6353Z" fill="#04D361"></path><path d="M193.204 39.5771V53.6944H191.746V40.8622H188.4V39.5771H193.204Z" fill="#04D361"></path><path d="M402.218 116.434C402.218 113.659 403.679 112.008 405.693 112.008C407.707 112.008 409.181 113.659 409.181 116.434C409.181 119.21 407.707 120.861 405.693 120.861C403.679 120.861 402.218 119.21 402.218 116.434ZM408.26 116.434C408.26 114.106 407.213 112.834 405.693 112.834C404.174 112.834 403.127 114.118 403.127 116.434C403.127 118.751 404.174 120.035 405.693 120.035C407.213 120.047 408.26 118.762 408.26 116.434Z" fill="#41414D"></path><path d="M410.47 116.433C410.47 113.658 411.931 112.007 413.945 112.007C415.959 112.007 417.433 113.658 417.433 116.433C417.433 119.209 415.959 120.86 413.945 120.86C411.931 120.86 410.47 119.209 410.47 116.433ZM416.523 116.433C416.523 114.105 415.476 112.833 413.957 112.833C412.438 112.833 411.39 114.117 411.39 116.433C411.39 118.75 412.438 120.034 413.957 120.034C415.476 120.046 416.523 118.761 416.523 116.433Z" fill="#41414D"></path><path d="M421.116 112.087V120.78H420.218V112.878H418.158V112.087H421.116Z" fill="#41414D"></path><path d="M423.198 116.433C423.198 113.658 424.66 112.007 426.674 112.007C428.688 112.007 430.161 113.658 430.161 116.433C430.161 119.209 428.688 120.86 426.674 120.86C424.66 120.86 423.198 119.209 423.198 116.433ZM429.252 116.433C429.252 114.105 428.205 112.833 426.685 112.833C425.166 112.833 424.119 114.117 424.119 116.433C424.119 118.75 425.166 120.034 426.685 120.034C428.205 120.046 429.252 118.761 429.252 116.433Z" fill="#41414D"></path><path d="M433.855 112.087V120.78H432.958V112.878H430.897V112.087H433.855Z" fill="#41414D"></path><path d="M393.622 128.785C393.622 126.01 395.084 124.358 397.098 124.358C399.112 124.358 400.585 126.01 400.585 128.785C400.585 131.56 399.112 133.212 397.098 133.212C395.084 133.212 393.622 131.549 393.622 128.785ZM399.664 128.785C399.664 126.457 398.617 125.184 397.098 125.184C395.579 125.184 394.531 126.469 394.531 128.785C394.531 131.113 395.579 132.386 397.098 132.386C398.617 132.386 399.664 131.102 399.664 128.785Z" fill="#41414D"></path><path d="M401.875 128.786C401.875 126.011 403.337 124.359 405.351 124.359C407.365 124.359 408.838 126.011 408.838 128.786C408.838 131.561 407.365 133.213 405.351 133.213C403.337 133.213 401.875 131.55 401.875 128.786ZM407.929 128.786C407.929 126.458 406.881 125.185 405.362 125.185C403.843 125.185 402.796 126.469 402.796 128.786C402.796 131.114 403.843 132.387 405.362 132.387C406.881 132.387 407.929 131.103 407.929 128.786Z" fill="#41414D"></path><path d="M412.531 124.438V133.131H411.633V125.23H409.573V124.438H412.531Z" fill="#41414D"></path><path d="M414.615 128.786C414.615 126.011 416.077 124.359 418.091 124.359C420.105 124.359 421.578 126.011 421.578 128.786C421.578 131.561 420.105 133.213 418.091 133.213C416.077 133.213 414.615 131.55 414.615 128.786ZM420.657 128.786C420.657 126.458 419.61 125.185 418.091 125.185C416.572 125.185 415.524 126.469 415.524 128.786C415.524 131.114 416.572 132.387 418.091 132.387C419.61 132.387 420.657 131.103 420.657 128.786Z" fill="#41414D"></path><path d="M425.26 124.438V133.131H424.363V125.23H422.303V124.438H425.26Z" fill="#41414D"></path><path d="M429.76 124.438V133.131H428.863V125.23H426.803V124.438H429.76Z" fill="#41414D"></path><path d="M431.843 128.786C431.843 126.011 433.304 124.359 435.318 124.359C437.332 124.359 438.806 126.011 438.806 128.786C438.806 131.561 437.332 133.213 435.318 133.213C433.304 133.213 431.843 131.55 431.843 128.786ZM437.885 128.786C437.885 126.458 436.838 125.185 435.318 125.185C433.799 125.185 432.752 126.469 432.752 128.786C432.752 131.114 433.799 132.387 435.318 132.387C436.838 132.387 437.885 131.103 437.885 128.786Z" fill="#41414D"></path><path d="M442.489 124.438V133.131H441.591V125.23H439.531V124.438H442.489Z" fill="#41414D"></path><path d="M402.218 140.724C402.218 137.948 403.679 136.297 405.693 136.297C407.707 136.297 409.181 137.948 409.181 140.724C409.181 143.499 407.707 145.15 405.693 145.15C403.679 145.15 402.218 143.487 402.218 140.724ZM408.26 140.724C408.26 138.396 407.213 137.123 405.693 137.123C404.174 137.123 403.127 138.407 403.127 140.724C403.127 143.04 404.174 144.324 405.693 144.324C407.213 144.324 408.26 143.04 408.26 140.724Z" fill="#41414D"></path><path d="M412.865 136.377V145.07H411.967V137.168H409.907V136.377H412.865Z" fill="#41414D"></path><path d="M417.364 136.377V145.07H416.466V137.168H414.406V136.377H417.364Z" fill="#41414D"></path><path d="M421.863 136.377V145.07H420.965V137.168H418.905V136.377H421.863Z" fill="#41414D"></path><path d="M423.959 140.724C423.959 137.948 425.421 136.297 427.435 136.297C429.449 136.297 430.922 137.948 430.922 140.724C430.922 143.499 429.449 145.15 427.435 145.15C425.421 145.15 423.959 143.487 423.959 140.724ZM430.001 140.724C430.001 138.396 428.954 137.123 427.435 137.123C425.915 137.123 424.868 138.407 424.868 140.724C424.868 143.04 425.915 144.324 427.435 144.324C428.954 144.324 430.001 143.04 430.001 140.724Z" fill="#41414D"></path><path d="M434.604 136.377V145.07H433.707V137.168H431.646V136.377H434.604Z" fill="#41414D"></path><path d="M327.724 142.099C330.055 143.447 333.035 142.648 334.38 140.313C335.725 137.979 334.927 134.993 332.596 133.645C330.265 132.297 327.285 133.097 325.94 135.431C324.595 137.766 325.394 140.751 327.724 142.099Z" fill="#29292E"></path><path d="M132.524 189.206C134.855 190.554 137.835 189.754 139.18 187.42C140.525 185.085 139.726 182.1 137.396 180.752C135.065 179.403 132.085 180.203 130.74 182.538C129.395 184.872 130.193 187.858 132.524 189.206Z" fill="#29292E"></path><path d="M150.323 201.578C151.311 202.15 152.574 201.811 153.145 200.821C153.715 199.832 153.376 198.566 152.388 197.995C151.4 197.423 150.137 197.762 149.567 198.752C148.997 199.741 149.335 201.007 150.323 201.578Z" fill="#29292E"></path><path d="M356.347 359.559C357.335 360.13 358.598 359.791 359.168 358.802C359.738 357.812 359.4 356.547 358.412 355.975C357.424 355.404 356.161 355.743 355.591 356.732C355.02 357.722 355.359 358.987 356.347 359.559Z" fill="#29292E"></path><path d="M319.169 110.829C320.206 111.427 321.532 111.071 322.13 110.034C322.729 108.997 322.375 107.67 321.338 107.072C320.301 106.473 318.975 106.829 318.376 107.867C317.778 108.904 318.132 110.23 319.169 110.829Z" fill="#FFFFFF"></path><path d="M339.428 361.266C339.944 361.565 340.605 361.387 340.903 360.87C341.201 360.352 341.024 359.691 340.508 359.392C339.991 359.093 339.331 359.27 339.032 359.788C338.734 360.305 338.911 360.967 339.428 361.266Z" fill="#FFFFFF"></path><path d="M129.616 358.36C130.133 358.658 130.794 358.481 131.092 357.964C131.39 357.446 131.213 356.784 130.696 356.485C130.18 356.187 129.519 356.364 129.221 356.881C128.923 357.399 129.1 358.061 129.616 358.36Z" fill="#FFFFFF"></path><path d="M116.766 196.581C117.544 197.031 118.538 196.765 118.987 195.985C119.436 195.206 119.17 194.21 118.392 193.76C117.614 193.31 116.619 193.577 116.17 194.356C115.722 195.135 115.988 196.132 116.766 196.581Z" fill="#FFFFFF"></path><path d="M302.773 140.407C303.289 140.706 303.95 140.529 304.248 140.012C304.546 139.494 304.369 138.832 303.852 138.533C303.336 138.234 302.675 138.412 302.377 138.929C302.079 139.447 302.256 140.109 302.773 140.407Z" fill="#FFFFFF"></path><path d="M331.383 134.393L336.089 137.724L330.751 139.9L327.428 144.617L325.257 139.266L320.551 135.93L325.889 133.759L329.218 129.042L331.383 134.393Z" fill="#FFFFFF"></path><path d="M324.016 376.817C325.052 377.417 326.377 377.061 326.975 376.023C327.573 374.985 327.218 373.658 326.182 373.059C325.146 372.46 323.821 372.815 323.223 373.853C322.625 374.891 322.98 376.218 324.016 376.817Z" fill="#FFFFFF"></path><path d="M340.483 378.249C341.519 378.848 342.844 378.493 343.442 377.455C344.04 376.417 343.685 375.09 342.649 374.491C341.612 373.891 340.288 374.247 339.69 375.285C339.091 376.322 339.447 377.65 340.483 378.249Z" fill="#FFFFFF"></path><path d="M363.427 344.806L361.083 351.18L356.991 345.758L350.628 343.409L356.036 339.316L358.38 332.942L362.47 338.356L368.833 340.705L363.427 344.806Z" fill="#FFFFFF"></path><path d="M124.937 164.165L119.848 163.816L122.885 159.71L123.233 154.611L127.329 157.66L132.418 158.009L129.381 162.115L129.033 167.214L124.937 164.165Z" fill="#FFFFFF"></path><path d="M133.026 324.425L134.004 330.117L128.695 327.869L123.017 328.849L125.253 323.528L124.281 317.836L129.59 320.084L135.268 319.103L133.026 324.425Z" fill="#FFFFFF"></path><path d="M154.737 338.347L155.399 341.175L152.667 340.206L149.852 340.87L150.812 338.138L150.15 335.315L152.882 336.278L155.697 335.614L154.737 338.347Z" fill="#FFFFFF"></path><path d="M192.529 427.089C205.836 429 219.173 430.78 232.586 431.781C244.236 432.651 255.941 432.746 267.616 432.999C278.218 433.226 288.867 433.179 299.417 432.01C304.03 431.497 308.705 430.761 313.266 429.631L313.268 421.196C276.989 421.2 247.58 391.769 247.584 355.465L247.305 278.236L224.927 278.239L225.201 355.59C225.125 391.84 195.743 421.201 159.503 421.209L159.536 422.495C170.557 423.869 181.539 425.517 192.529 427.089Z" fill="url(&quot;#paint0_radial&quot;)"></path><path d="M432.15 267.695C418.603 406.401 284.125 432.282 284.134 357.298L284.309 310.913L270.916 310.915C270.916 310.915 270.704 383.211 270.633 384.145C269.127 405.483 252.528 416.143 235.963 416.107C219.395 416.143 202.807 405.486 201.301 384.154C201.235 383.223 201.036 310.923 201.036 310.923L187.65 310.924L187.815 357.309C187.806 432.293 53.38 406.447 39.8611 267.74H39.7285C44.7309 372.018 130.631 455.012 235.876 455C235.901 455 235.934 455 235.959 455C235.984 455 236.017 455 236.042 455C341.288 454.988 427.207 371.974 432.233 267.695H432.15Z" fill="url(&quot;#paint1_radial&quot;)"></path><path d="M273.333 102.244C276.024 102.244 278.205 100.059 278.205 97.3634C278.205 94.6677 276.024 92.4824 273.333 92.4824C270.641 92.4824 268.46 94.6677 268.46 97.3634C268.46 100.059 270.641 102.244 273.333 102.244Z" fill="#29292E"></path><path d="M250.378 178.215L250.376 163.591L254.658 158.939L236.243 158.938L236.162 158.934L217.742 158.936L222.03 163.585L222.027 178.212L217.745 182.527L236.165 189.315V189.34L236.203 189.328L236.241 189.34L236.245 189.311L254.664 182.536L250.378 178.215Z" fill="#F1F1F1"></path><path d="M250.378 178.215L250.376 163.591L254.658 158.939L236.243 158.938L236.162 158.934L217.742 158.936L222.03 163.585L222.027 178.212L217.745 182.527L236.165 189.315V189.34L236.203 189.328L236.241 189.34L236.245 189.311L254.664 182.536L250.378 178.215Z" fill="#E5E5E5"></path><path d="M250.377 170.348L250.376 163.592L254.663 158.943L246.173 158.942L240.492 169.211C243.792 169.514 247.089 169.939 250.377 170.348Z" fill="#F1F1F1"></path><path d="M250.377 171.525C246.884 171.088 243.382 170.633 239.871 170.321L239.532 170.94L233.771 176.955L229.984 182.524L232.865 188.095L236.162 189.311V189.336L236.2 189.323L236.237 189.336V189.311L254.656 182.535L250.37 178.214L250.377 171.525Z" fill="#FFFFFF"></path><path d="M270.861 298.995L242.419 298.993C242.125 298.993 241.89 298.757 241.89 298.463V295.198C241.89 294.904 242.124 294.668 242.418 294.668L270.861 294.67C271.155 294.67 271.39 294.906 271.39 295.201L271.391 298.465C271.387 298.755 271.151 298.991 270.861 298.995Z" fill="#464650"></path><path d="M270.856 280.303L242.413 280.301C242.119 280.301 241.885 280.065 241.885 279.77L241.884 276.506C241.884 276.212 242.119 275.976 242.413 275.976L270.855 275.978C271.149 275.978 271.385 276.214 271.385 276.508V279.773C271.385 280.067 271.15 280.303 270.856 280.303Z" fill="#464650"></path><path d="M265.171 299.553L245.058 279.401C244.852 279.195 244.852 278.858 245.057 278.652L247.363 276.343C247.569 276.137 247.904 276.137 248.11 276.343L268.224 296.496C268.43 296.702 268.43 297.038 268.224 297.244L265.919 299.553C265.71 299.764 265.378 299.759 265.171 299.553Z" fill="#464650"></path><path d="M270.855 230.895L242.413 230.892C242.118 230.892 241.884 230.656 241.884 230.362L241.883 227.098C241.883 226.803 242.118 226.567 242.412 226.567L270.854 226.57C271.148 226.57 271.384 226.806 271.384 227.1V230.365C271.384 230.659 271.149 230.895 270.855 230.895Z" fill="#464650"></path><path d="M201.568 298.984L230.011 298.987C230.305 298.987 230.54 298.752 230.54 298.457L230.539 295.193C230.539 294.898 230.305 294.663 230.01 294.663L201.568 294.66C201.274 294.66 201.039 294.895 201.039 295.19V298.455C201.039 298.749 201.275 298.984 201.568 298.984Z" fill="#464650"></path><path d="M201.566 280.298L230.01 280.3C230.303 280.3 230.538 280.065 230.538 279.771V276.506C230.538 276.211 230.303 275.976 230.009 275.976L201.566 275.974C201.273 275.974 201.037 276.209 201.037 276.503L201.038 279.768C201.038 280.063 201.273 280.298 201.566 280.298Z" fill="#464650"></path><path d="M207.258 299.553L227.368 279.404C227.574 279.197 227.574 278.861 227.368 278.655L225.063 276.346C224.857 276.139 224.521 276.139 224.316 276.345L204.205 296.494C203.999 296.7 203.999 297.037 204.206 297.243L206.511 299.553C206.716 299.759 207.052 299.759 207.258 299.553Z" fill="#464650"></path><path d="M201.559 230.889L230.001 230.891C230.295 230.891 230.53 230.655 230.53 230.361V227.096C230.53 226.802 230.295 226.566 230.001 226.566L201.559 226.563C201.264 226.563 201.029 226.799 201.029 227.094V230.358C201.034 230.648 201.269 230.884 201.559 230.889Z" fill="#464650"></path><path d="M178.953 238.519L210.158 238.521C211.712 238.521 212.971 237.26 212.971 235.703L212.968 198.009C212.968 196.453 211.708 195.191 210.154 195.191L178.949 195.188C177.396 195.188 176.136 196.45 176.136 198.006L176.14 235.7C176.14 237.257 177.399 238.518 178.953 238.519Z" fill="#F1F1F1"></path><path d="M262.088 237.684L293.411 237.687C294.964 237.687 296.224 236.426 296.224 234.869L296.221 197.175C296.22 195.619 294.961 194.357 293.407 194.357L262.085 194.354C260.531 194.354 259.271 195.616 259.271 197.172L259.275 234.866C259.275 236.422 260.535 237.684 262.088 237.684Z" fill="#F1F1F1"></path><path d="M252.949 107.27L219.401 107.267C218.46 107.267 217.701 106.505 217.701 105.563L217.697 67.7436C217.697 66.8013 218.457 66.04 219.398 66.04L252.946 66.043C253.886 66.043 254.646 66.8045 254.646 67.7469L254.65 105.566C254.645 106.513 253.885 107.274 252.949 107.27Z" fill="#F1F1F1"></path><path d="M247.117 193.334L225.289 193.332L225.29 207.598L247.118 207.6L247.117 193.334Z" fill="#F1F1F1"></path><path d="M180.924 311.969L184.044 317.535L195.867 317.536L195.866 298.984L180.924 311.969Z" fill="#464650"></path><path d="M208.032 311.97L204.913 317.536L193.089 317.535L193.087 298.982L208.032 311.97Z" fill="#464650"></path><path d="M180.924 311.969L184.044 317.535L195.867 317.536L195.866 298.984L180.924 311.969Z" fill="#464650"></path><path d="M208.032 311.97L204.913 317.536L193.089 317.535L193.087 298.982L208.032 311.97Z" fill="#464650"></path><path d="M204.455 319.544L184.561 319.543C184.293 319.543 184.074 319.324 184.074 319.054V317.548L204.943 317.55V319.056C204.943 319.325 204.724 319.544 204.455 319.544Z" fill="#04D361"></path><path d="M210.41 250.393L212.429 244.499C212.819 243.368 213.017 242.177 213.012 240.979L213.009 207.424C213.009 204.64 210.758 202.385 207.979 202.384L181.047 202.382C178.268 202.382 176.018 204.637 176.018 207.421L176.021 240.832C176.021 242.128 176.247 243.407 176.684 244.627L178.553 249.797C179.107 251.328 179.389 252.948 179.389 254.581L179.392 286.813C179.392 288.37 179.137 289.914 178.628 291.382L176.845 296.585C176.302 298.171 176.026 299.838 176.026 301.512V301.638C176.026 304.944 176.875 308.193 178.492 311.074C179.6 313.051 181.687 314.275 183.954 314.276L192.629 314.277H196.425L205.099 314.278C207.367 314.278 209.453 313.054 210.562 311.077C212.178 308.195 213.021 304.943 213.025 301.641V298.982L210.497 291.973C209.943 290.442 209.661 288.822 209.661 287.19L209.658 254.958C209.65 253.41 209.906 251.866 210.41 250.393Z" fill="#F1F1F1"></path><path d="M197.021 311.079C195.405 308.197 194.561 304.946 194.556 301.643V301.517C194.556 299.842 194.833 298.177 195.374 296.591L197.159 291.387C197.662 289.914 197.918 288.371 197.922 286.819L197.92 254.585C197.92 252.953 197.638 251.334 197.084 249.802L195.215 244.632C194.774 243.416 194.551 242.133 194.551 240.837L194.548 207.427C194.548 204.642 196.798 202.387 199.578 202.387L181.044 202.386C178.264 202.386 176.015 204.64 176.015 207.425L176.018 240.836C176.018 242.132 176.244 243.41 176.682 244.631L178.55 249.8C179.105 251.332 179.386 252.951 179.386 254.584L179.389 286.817C179.389 288.373 179.133 289.918 178.625 291.385L176.841 296.589C176.3 298.175 176.023 299.841 176.023 301.515V301.642C176.023 304.948 176.872 308.196 178.489 311.077C179.597 313.055 181.684 314.279 183.951 314.279L192.626 314.28L196.422 314.281H202.485C200.221 314.285 198.13 313.057 197.021 311.079Z" fill="#FFFFFF"></path><path d="M194.513 178.205C197.216 178.206 199.664 179.077 200.769 180.428L211.893 194.038C212.632 194.938 213.01 195.914 213.01 196.906C213.01 198.127 211.204 199.119 208.979 199.119L180.041 199.117C177.816 199.116 176.015 198.127 176.01 196.903C176.01 195.919 176.392 194.938 177.127 194.034L188.248 180.426C189.361 179.076 191.809 178.205 194.513 178.205Z" fill="#FFFFFF"></path><path d="M217.714 312.359L221.972 319.958L238.112 319.959L238.11 294.643L217.714 312.359Z" fill="#464650"></path><path d="M254.713 312.363L250.456 319.96L234.316 319.958L234.313 294.642L254.713 312.363Z" fill="#464650"></path><path d="M252.239 205.421C251.13 203.444 249.044 202.219 246.776 202.219L238.102 202.219H234.306L225.631 202.218C223.364 202.218 221.277 203.441 220.169 205.419C218.552 208.3 217.709 211.552 217.705 214.855L217.713 307.321V312.361L254.713 312.364V307.324L254.705 214.858C254.704 211.551 253.856 208.303 252.239 205.421Z" fill="#E5E5E5"></path><path d="M217.714 312.359L221.972 319.958L238.112 319.959L238.11 294.643L217.714 312.359Z" fill="#464650"></path><path d="M254.713 312.363L250.456 319.96L234.316 319.958L234.313 294.642L254.713 312.363Z" fill="#464650"></path><path d="M252.239 205.421C251.13 203.444 249.044 202.219 246.776 202.219L238.102 202.219H234.306L225.631 202.218C223.364 202.218 221.277 203.441 220.169 205.419C218.552 208.3 217.709 211.552 217.705 214.855L217.713 307.321V312.361L254.713 312.364V307.324L254.705 214.858C254.704 211.551 253.856 208.303 252.239 205.421Z" fill="#F1F1F1"></path><path d="M234.265 214.856C234.265 211.549 235.113 208.302 236.729 205.42C237.838 203.443 239.924 202.219 242.192 202.219H238.11H234.315L225.64 202.218C223.372 202.217 221.286 203.441 220.177 205.418C218.561 208.3 217.718 211.551 217.714 214.854L217.722 307.321V312.36L234.274 312.362V307.322L234.265 214.856Z" fill="#FFFFFF"></path><path d="M249.836 322.704L222.678 322.701C222.308 322.701 222.015 322.406 222.015 322.036V319.983L250.499 319.986V322.039C250.495 322.405 250.196 322.704 249.836 322.704Z" fill="#04D361"></path><path d="M236.227 32.5518C233.531 32.5515 231.087 34.2004 229.992 36.7623L218.905 62.5619C218.171 64.274 217.789 66.1207 217.793 67.9928C217.793 70.3065 219.59 72.1829 221.807 72.1831L250.653 72.1857C252.87 72.1859 254.667 70.3098 254.667 67.996C254.667 66.1198 254.285 64.2729 253.554 62.5649L242.463 36.7634C241.366 34.2013 238.923 32.552 236.227 32.5518Z" fill="#FFFFFF"></path><path d="M254.679 302.958L217.722 302.955L217.722 307.274L254.68 307.278L254.679 302.958Z" fill="#464650"></path><path d="M212.992 213.051L176.035 213.048V217.367L212.993 217.37L212.992 213.051Z" fill="#464650"></path><path d="M217.737 140.471L217.739 158.931L254.738 158.934L254.737 140.416C254.736 139.221 254.363 138.056 253.665 137.088L250.44 132.612L253.627 128.275C254.345 127.295 254.731 126.117 254.731 124.906L254.727 79.0591C254.726 76.2742 252.476 74.0192 249.697 74.019L222.765 74.0166C219.986 74.0164 217.735 76.271 217.735 79.056L217.739 124.978C217.739 126.173 218.113 127.338 218.811 128.305L222.023 132.769L218.841 137.11C218.127 138.078 217.741 139.264 217.737 140.471Z" fill="#F1F1F1"></path><path d="M217.745 182.528V185.658C217.746 188.965 218.594 192.212 220.211 195.094C221.32 197.072 223.406 198.296 225.674 198.296L234.348 198.297H238.144L246.819 198.298C249.086 198.298 251.173 197.074 252.281 195.097C253.898 192.215 254.741 188.963 254.745 185.661V182.532L217.745 182.528Z" fill="#F1F1F1"></path><path d="M229.98 140.474C229.98 139.263 230.366 138.084 231.08 137.108L234.262 132.768L231.05 128.303C230.352 127.336 229.978 126.171 229.978 124.976L229.974 79.0541C229.974 76.2691 232.225 74.0145 235.004 74.0147L222.76 74.0137C219.981 74.0134 217.731 76.2681 217.731 79.053L217.735 124.975C217.735 126.17 218.109 127.335 218.806 128.302L222.018 132.766L218.836 137.107C218.122 138.084 217.736 139.261 217.736 140.473L217.738 158.933L229.982 158.934L229.98 140.474Z" fill="#FFFFFF"></path><path d="M232.45 195.092C230.834 192.21 229.989 188.958 229.985 185.655L229.984 182.525L217.741 182.524V185.654C217.741 188.961 218.59 192.208 220.206 195.09C221.315 197.068 223.402 198.292 225.67 198.292L234.345 198.293H237.905C235.646 198.302 233.555 197.073 232.45 195.092Z" fill="#FFFFFF"></path><path d="M279.297 301.406L276.517 301.405L266.029 310.517C265.055 311.366 264.807 312.784 265.437 313.912L267.474 317.543L276.519 317.543H279.298L288.342 317.544L290.378 313.914C291.008 312.786 290.76 311.369 289.786 310.519L279.297 301.406Z" fill="#464650"></path><path d="M287.885 319.551L267.991 319.549C267.722 319.549 267.505 319.33 267.505 319.06L267.504 317.555L288.372 317.556V319.063C288.372 319.332 288.154 319.551 287.885 319.551Z" fill="#04D361"></path><path d="M289.69 310.523L289.74 310.481L279.301 301.41H278.276L285.025 309.845C285.369 310.274 285.885 310.522 286.432 310.522L289.69 310.523Z" fill="#6B6B76"></path><path d="M281.569 307.897L278.272 301.405H277.449L274.154 307.896C273.545 309.095 274.414 310.522 275.758 310.522L279.957 310.522C281.305 310.518 282.178 309.096 281.569 307.897Z" fill="#6B6B76"></path><path d="M277.45 301.405H276.518L266.03 310.517H269.297C269.843 310.517 270.359 310.269 270.703 309.84L277.45 301.405Z" fill="#6B6B76"></path><path d="M286.514 303.001L269.3 302.999C269.098 302.999 268.93 302.831 268.93 302.629V300.332C268.93 300.13 269.097 299.962 269.299 299.962L286.514 299.964C286.715 299.964 286.884 300.131 286.884 300.333V302.63C286.884 302.832 286.715 303.001 286.514 303.001Z" fill="#464650"></path><path d="M254.65 158.974L217.698 158.971L217.7 182.994L254.652 182.998L254.65 158.974Z" fill="#464650"></path><path d="M213.01 196.907C213.01 195.922 212.628 194.942 211.893 194.038L203.995 184.374C202.504 182.552 199.724 182.552 198.233 184.374L190.311 194.07C189.572 194.97 189.194 195.946 189.194 196.938C189.195 198.024 190.631 198.933 192.525 199.114L208.992 199.115C211.205 199.12 213.01 198.127 213.01 196.907Z" fill="#F1F1F1"></path><path d="M254.515 65.9187C254.339 64.766 254.019 63.6386 253.558 62.5616L243.34 38.7963C242.752 37.4248 241.416 36.5076 239.93 36.499C239.922 36.499 239.913 36.499 239.896 36.499C237.739 36.4989 235.782 37.8196 234.901 39.8725L226.022 60.5315C225.435 61.9029 225.132 63.3836 225.132 64.8813C225.133 66.7323 226.572 68.2343 228.349 68.2386L251.451 68.2407C252.886 68.2407 254.095 67.2649 254.515 65.9187Z" fill="#F1F1F1"></path><path d="M263.741 244.794L292.089 244.796L292.085 197.142L263.737 197.14L263.741 244.794Z" fill="#F1F1F1"></path><path d="M293.766 250.399L295.785 244.506C296.176 243.374 296.373 242.184 296.368 240.985L296.366 207.431C296.365 204.646 294.114 202.391 291.335 202.391L264.404 202.389C261.625 202.389 259.374 204.643 259.374 207.428L259.377 240.839C259.377 242.134 259.604 243.413 260.041 244.633L261.91 249.803C262.464 251.335 262.746 252.954 262.746 254.587L262.749 286.82C262.749 288.376 262.493 289.921 261.985 291.388L260.201 296.592C259.66 298.178 259.382 299.844 259.382 301.518V301.645C259.383 304.951 260.231 308.199 261.848 311.08C262.957 313.058 265.044 314.282 267.311 314.282L275.985 314.283L279.781 314.284H288.456C290.723 314.285 292.81 313.06 293.918 311.084C295.535 308.202 296.378 304.95 296.382 301.648V298.989L293.854 291.98C293.299 290.448 293.018 288.829 293.018 287.197L293.015 254.964C293.006 253.416 293.262 251.872 293.766 250.399Z" fill="#F1F1F1"></path><path d="M280.381 311.091C278.765 308.209 277.92 304.957 277.916 301.654V301.528C277.916 299.854 278.192 298.188 278.734 296.602L280.518 291.398C281.022 289.926 281.277 288.382 281.281 286.829L281.279 254.597C281.279 252.965 280.997 251.345 280.443 249.814L278.574 244.643C278.133 243.427 277.911 242.144 277.91 240.848L277.908 207.437C277.907 204.653 280.157 202.398 282.937 202.398L264.404 202.396C261.624 202.396 259.374 204.651 259.374 207.436L259.376 240.847C259.377 242.142 259.604 243.421 260.041 244.641L261.91 249.812C262.464 251.343 262.746 252.963 262.746 254.595L262.748 286.828C262.749 288.385 262.492 289.928 261.985 291.397L260.2 296.6C259.659 298.186 259.382 299.852 259.382 301.527V301.652C259.382 304.959 260.231 308.207 261.848 311.089C262.956 313.066 265.043 314.29 267.311 314.291H275.985L279.781 314.292H285.844C283.577 314.292 281.489 313.067 280.381 311.091Z" fill="#FFFFFF"></path><path d="M277.866 178.213C280.571 178.213 283.018 179.085 284.123 180.435L295.246 194.045C295.986 194.945 296.364 195.921 296.364 196.914C296.364 198.134 294.559 199.127 292.333 199.126L263.395 199.124C261.17 199.124 259.368 198.135 259.364 196.911C259.364 195.927 259.746 194.946 260.481 194.042L271.602 180.434C272.715 179.083 275.166 178.217 277.866 178.213Z" fill="#FFFFFF"></path><path d="M296.364 196.948C296.364 195.963 295.981 194.983 295.246 194.079L287.347 184.415C285.857 182.593 283.077 182.593 281.587 184.415L273.665 194.111C272.926 195.011 272.548 195.987 272.548 196.979C272.548 198.065 273.984 198.974 275.877 199.155L292.345 199.156C294.562 199.156 296.364 198.168 296.364 196.948Z" fill="#FFFFFF"></path><path d="M296.398 196.948C296.398 195.964 296.015 194.983 295.28 194.079L287.381 184.415C285.891 182.594 283.112 182.593 281.621 184.415L273.699 194.111C272.96 195.011 272.582 195.987 272.582 196.98C272.582 198.065 274.019 198.974 275.911 199.155L292.38 199.156C294.592 199.161 296.398 198.168 296.398 196.948Z" fill="#F1F1F1"></path><path d="M196.687 229.012L196.689 242.887C196.689 243.215 196.424 243.479 196.097 243.479H192.99C192.662 243.479 192.397 243.214 192.397 242.886L192.396 229.012C192.396 228.684 192.66 228.419 192.988 228.419H196.095C196.423 228.419 196.687 228.684 196.687 229.012Z" fill="#CBCBCB"></path><path d="M281.781 214.489L281.783 238.333C281.783 238.661 281.518 238.926 281.191 238.926H277.949C277.623 238.926 277.358 238.661 277.358 238.333L277.355 214.488C277.355 214.161 277.62 213.896 277.948 213.896H281.189C281.512 213.891 281.781 214.161 281.781 214.489Z" fill="#CBCBCB"></path><path d="M230.993 106.116L236.339 111.241L241.885 106.107L241.887 109.643L236.341 114.584L230.996 109.635L230.993 106.116Z" fill="#04D361"></path><path d="M230.988 99.689L230.985 96.1699L241.877 101.906L241.879 105.267L230.988 99.689Z" fill="#04D361"></path><path d="M230.982 91.7477L236.32 86.8018L241.874 91.7892L241.876 95.2916L236.323 90.1502L230.985 95.2668L230.982 91.7477Z" fill="#04D361"></path><path d="M227.028 177.754C226.705 178.078 226.26 178.28 225.769 178.276C224.786 178.276 223.988 177.476 223.988 176.492L223.987 165.276C223.987 164.292 224.784 163.493 225.767 163.493C226.749 163.493 227.547 164.293 227.547 165.277L227.549 176.493C227.553 176.985 227.352 177.431 227.028 177.754Z" fill="#05D261"></path><path d="M259.361 207.272C259.361 207.272 259.239 196.785 259.36 196.755C259.483 196.725 266.2 192.52 266.2 192.52L263.261 197.988L263.896 198.968C263.896 198.968 266.621 198.829 267.041 200.092C267.461 201.354 265.281 203.217 263.468 202.78C261.658 202.338 263.682 210.188 263.682 210.188C263.682 210.188 261.583 211.449 261.163 211.029C260.743 210.609 259.361 207.272 259.361 207.272Z" fill="#FFFFFF"></path><path d="M217.793 67.9934L217.735 81.8844L223.571 78.6625L228.61 76.1388L222.764 74.018C222.764 74.018 227.35 74.8766 227.35 73.1939C227.35 71.5112 222.731 70.2488 222.731 70.2488L219.791 67.3037L217.793 67.9934Z" fill="#FFFFFF"></path><defs><radialGradient id="paint0_radial" cx="0" cy="0" r="1" gradientUnits="userSpaceOnUse" gradientTransform="translate(238.164 315.185) rotate(90) scale(92.5978 92.5277)"><stop offset="0.1797" stop-color="#04D361"></stop><stop offset="0.262" stop-color="#04D361" stop-opacity="0.9"></stop><stop offset="0.3839" stop-color="#04D361" stop-opacity="0.74"></stop><stop offset="0.5304" stop-color="#04D361" stop-opacity="0.58"></stop><stop offset="0.696" stop-color="#04D361" stop-opacity="0.38"></stop><stop offset="0.8751" stop-color="#04D361" stop-opacity="0.15"></stop><stop offset="1" stop-color="#04D361" stop-opacity="0"></stop></radialGradient><radialGradient id="paint1_radial" cx="0" cy="0" r="1" gradientUnits="userSpaceOnUse" gradientTransform="translate(235.561 314.981) rotate(-0.432242) scale(185.79 186.286)"><stop offset="0.1797" stop-color="#04D361"></stop><stop offset="0.262" stop-color="#04D361" stop-opacity="0.9"></stop><stop offset="0.3839" stop-color="#04D361" stop-opacity="0.74"></stop><stop offset="0.5304" stop-color="#04D361" stop-opacity="0.58"></stop><stop offset="0.696" stop-color="#04D361" stop-opacity="0.38"></stop><stop offset="0.8751" stop-color="#04D361" stop-opacity="0.15"></stop><stop offset="1" stop-color="#04D361" stop-opacity="0"></stop></radialGradient><radialGradient id="paint0_radial" cx="0" cy="0" r="1" gradientUnits="userSpaceOnUse" gradientTransform="translate(238.164 315.185) rotate(90) scale(92.5978 92.5277)"><stop offset="0.1797" stop-color="#04D361"></stop><stop offset="0.262" stop-color="#04D361" stop-opacity="0.9"></stop><stop offset="0.3839" stop-color="#04D361" stop-opacity="0.74"></stop><stop offset="0.5304" stop-color="#04D361" stop-opacity="0.58"></stop><stop offset="0.696" stop-color="#04D361" stop-opacity="0.38"></stop><stop offset="0.8751" stop-color="#04D361" stop-opacity="0.15"></stop><stop offset="1" stop-color="#04D361" stop-opacity="0"></stop></radialGradient><radialGradient id="paint1_radial" cx="0" cy="0" r="1" gradientUnits="userSpaceOnUse" gradientTransform="translate(235.561 314.981) rotate(-0.432242) scale(185.79 186.286)"><stop offset="0.1797" stop-color="#04D361"></stop><stop offset="0.262" stop-color="#04D361" stop-opacity="0.9"></stop><stop offset="0.3839" stop-color="#04D361" stop-opacity="0.74"></stop><stop offset="0.5304" stop-color="#04D361" stop-opacity="0.58"></stop><stop offset="0.696" stop-color="#04D361" stop-opacity="0.38"></stop><stop offset="0.8751" stop-color="#04D361" stop-opacity="0.15"></stop><stop offset="1" stop-color="#04D361" stop-opacity="0"></stop></radialGradient></defs></svg>